<svg width="32" height="32" viewBox="0 0 32 32" fill="none" xmlns="http://www.w3.org/2000/svg">
<path d="M5.63033 16.9028C4.93191 16.9663 4.24937 16.9584 3.58271 16.879C2.93191 16.7838 2.35255 16.6092 1.84461 16.3552C1.3208 16.0854 0.900167 15.7282 0.582707 15.2838C0.249373 14.8235 0.0588972 14.26 0.0112782 13.5933C-0.0363409 12.9743 0.0668337 12.4505 0.320802 12.0219C0.558897 11.5933 0.868421 11.2679 1.24937 11.0457C1.63033 10.8235 2.0589 10.6965 2.53509 10.6647C2.99541 10.6171 3.42398 10.6727 3.8208 10.8314C4.2335 10.9743 4.58271 11.2203 4.86842 11.5695C5.15414 11.9028 5.31287 12.3235 5.34461 12.8314C5.39223 13.5616 5.24144 14.0854 4.89223 14.4028C4.54302 14.7203 4.12239 14.887 3.63033 14.9028C3.13826 14.9187 2.71763 14.8155 2.36842 14.5933C2.00334 14.3711 1.80493 14.006 1.77318 13.4981C1.75731 13.2441 1.78906 13.0298 1.86842 12.8552C1.93191 12.6647 2.01921 12.5139 2.13033 12.4028C2.22556 12.2758 2.34461 12.1885 2.48747 12.1409C2.63033 12.0774 2.76525 12.0457 2.89223 12.0457C3.16207 12.0298 3.37636 12.0933 3.53509 12.2362C3.70969 12.3631 3.81287 12.5616 3.84461 12.8314C3.86048 13.0854 3.78906 13.2679 3.63033 13.379C3.4716 13.4743 3.28906 13.4822 3.08271 13.4028C2.93985 13.3552 2.86048 13.2441 2.84461 13.0695C2.81287 12.8949 2.83668 12.7362 2.91604 12.5933C2.77318 12.6251 2.65414 12.6965 2.5589 12.8076C2.46366 12.9187 2.41604 13.0854 2.41604 13.3076C2.41604 13.5933 2.49541 13.8393 2.65414 14.0457C2.81287 14.2362 3.11445 14.3155 3.5589 14.2838C3.78112 14.2838 3.95572 14.2282 4.08271 14.1171C4.22556 14.006 4.33667 13.879 4.41604 13.7362C4.49541 13.5933 4.54302 13.4505 4.5589 13.3076C4.59064 13.1489 4.60652 13.0219 4.60652 12.9266C4.60652 12.8314 4.58271 12.6885 4.53509 12.4981C4.50334 12.3076 4.41604 12.1251 4.27318 11.9505C4.1462 11.76 3.95572 11.5933 3.70175 11.4505C3.46366 11.3076 3.13826 11.2203 2.72556 11.1885C2.29699 11.1727 1.94779 11.2441 1.67794 11.4028C1.4081 11.5457 1.19382 11.7362 1.03509 11.9743C0.876358 12.2124 0.765246 12.4663 0.701754 12.7362C0.638262 13.006 0.614453 13.2441 0.630326 13.4505C0.646199 13.8631 0.773183 14.2362 1.01128 14.5695C1.2335 14.9028 1.57477 15.1806 2.03509 15.4028C2.47953 15.6092 3.03509 15.752 3.70175 15.8314C4.38429 15.9108 5.17001 15.8949 6.0589 15.7838C6.29699 15.1806 6.52715 14.5536 6.74937 13.9028C6.9716 13.252 7.17795 12.6092 7.36842 11.9743C7.5589 11.3393 7.72556 10.7203 7.86842 10.1171C8.01128 9.51394 8.11445 8.95839 8.17795 8.45045C8.3208 7.2441 8.20175 6.29966 7.8208 5.61712C7.43985 4.91871 6.87636 4.55363 6.13033 4.52188L6.22556 3.90283C6.51128 3.95045 6.91604 4.00601 7.43985 4.0695C7.97953 4.13299 8.56683 4.18855 9.20175 4.23617C9.83668 4.26791 10.4716 4.28378 11.1065 4.28378C11.7414 4.26791 12.3129 4.20442 12.8208 4.09331L12.8446 4.47426C12.6383 4.53775 12.4478 4.60124 12.2732 4.66474C12.0986 4.72823 11.9557 4.81553 11.8446 4.92664C11.7335 5.02188 11.6541 5.1568 11.6065 5.3314C11.5589 5.49013 11.5668 5.69648 11.6303 5.95045C11.6938 6.22029 11.797 6.73617 11.9399 7.49807C12.0827 8.25997 12.2573 9.1568 12.4637 10.1885C12.67 11.2203 12.9081 12.3314 13.1779 13.5219C13.4478 14.7124 13.7414 15.8552 14.0589 16.9505C14.3764 18.0457 14.6938 19.0139 15.0113 19.8552C15.3446 20.6965 15.6779 21.387 16.0113 21.9266C16.3446 22.4505 16.6859 22.8076 17.0351 22.9981C17.3843 23.2044 17.7494 23.2203 18.1303 23.0457C18.3208 22.9346 18.4875 22.7838 18.6303 22.5933C18.7573 22.4187 18.8684 22.1965 18.9637 21.9266C19.0589 21.6568 19.1145 21.3155 19.1303 20.9028L19.4875 20.8314C19.551 21.0854 19.5668 21.4108 19.5351 21.8076C19.5033 22.1885 19.416 22.5695 19.2732 22.9505C19.1303 23.3314 18.916 23.6647 18.6303 23.9505C18.3446 24.252 17.9795 24.4266 17.5351 24.4743C17.17 24.5219 16.7573 24.506 16.297 24.4266C15.8525 24.3473 15.4002 24.1171 14.9399 23.7362C14.4954 23.3552 14.0589 22.7679 13.6303 21.9743C13.2176 21.1806 12.8605 20.0933 12.5589 18.7124C12.4795 18.3155 12.4002 17.9266 12.3208 17.5457C12.2414 17.1489 12.1621 16.7679 12.0827 16.4028C11.6224 16.4346 10.9954 16.4743 10.2018 16.5219C9.4081 16.5695 8.58271 16.6251 7.72556 16.6885C7.48747 17.6885 7.30493 18.5774 7.17795 19.3552C7.09858 19.8314 7.0589 20.2203 7.0589 20.5219C7.07477 20.8235 7.12239 21.0695 7.20175 21.26C7.28112 21.4346 7.4081 21.5774 7.58271 21.6885C7.77318 21.7997 8.01128 21.9028 8.29699 21.9981L8.27318 22.4981C8.00334 22.4346 7.59064 22.3949 7.03509 22.379C6.47953 22.3631 5.88429 22.3711 5.24937 22.4028C4.63033 22.4505 4.01128 22.5219 3.39223 22.6171C2.78906 22.7282 2.31287 22.879 1.96366 23.0695L1.77318 22.26C2.10652 22.1171 2.39223 22.0219 2.63033 21.9743C2.85255 21.9108 3.05096 21.8314 3.22556 21.7362C3.40017 21.6251 3.56683 21.4663 3.72556 21.26C3.88429 21.0378 4.05096 20.7124 4.22556 20.2838C4.36842 19.9663 4.5589 19.5139 4.79699 18.9266C5.05096 18.3393 5.33667 17.6647 5.65414 16.9028H5.63033ZM10.297 6.90283C10.17 7.41077 10.0113 7.99807 9.8208 8.66474C9.63033 9.3314 9.43191 10.0457 9.22556 10.8076C9.01922 11.5536 8.80493 12.3314 8.58271 13.1409C8.37636 13.9505 8.17795 14.7441 7.98747 15.5219C8.7335 15.4108 9.43191 15.3235 10.0827 15.26C10.7494 15.1965 11.3287 15.1489 11.8208 15.1171C11.4557 13.4028 11.1383 11.8631 10.8684 10.4981C10.5986 9.13299 10.4081 7.93458 10.297 6.90283Z" fill="black"/>
<path d="M23.797 28.3076C23.051 28.2917 22.2732 28.0854 21.4637 27.6885C20.6541 27.2917 19.916 26.6806 19.2494 25.8552C18.5986 25.0298 18.0589 23.9743 17.6303 22.6885C17.2176 21.4028 17.0192 19.8552 17.0351 18.0457C17.051 16.4266 17.3049 15.0219 17.797 13.8314C18.2891 12.6251 18.9002 11.6251 19.6303 10.8314C20.3764 10.0378 21.17 9.44251 22.0113 9.04569C22.8684 8.64886 23.6621 8.45045 24.3922 8.45045C25.2176 8.45045 25.9081 8.57744 26.4637 8.8314C27.0192 9.0695 27.4795 9.38696 27.8446 9.78378C28.2256 10.1806 28.5272 10.633 28.7494 11.1409C28.9875 11.633 29.1859 12.133 29.3446 12.6409C29.5033 13.133 29.6462 13.6171 29.7732 14.0933C29.9002 14.5536 30.051 14.9425 30.2256 15.26C29.8605 15.26 29.3843 15.3076 28.797 15.4028C28.2256 15.4981 27.5668 15.7282 26.8208 16.0933C26.9637 15.6171 27.0906 15.1171 27.2018 14.5933C27.3287 14.0536 27.4081 13.5219 27.4398 12.9981C27.4875 12.4743 27.4795 11.9822 27.416 11.5219C27.3525 11.0457 27.2176 10.6251 27.0113 10.26C26.9002 10.0695 26.7494 9.90283 26.5589 9.75997C26.3684 9.61712 26.1541 9.49807 25.916 9.40283C25.6779 9.30759 25.416 9.2441 25.1303 9.21236C24.8605 9.18061 24.5986 9.18855 24.3446 9.23617C23.8367 9.3314 23.3208 9.56156 22.797 9.92664C22.2891 10.2917 21.8129 10.8076 21.3684 11.4743C20.924 12.1409 20.5272 12.9584 20.1779 13.9266C19.8287 14.8949 19.5748 16.0298 19.416 17.3314C19.2256 18.8552 19.2494 20.1965 19.4875 21.3552C19.7414 22.5139 20.1065 23.4901 20.5827 24.2838C21.0748 25.0616 21.6303 25.6568 22.2494 26.0695C22.8843 26.4663 23.5033 26.6568 24.1065 26.6409C24.6938 26.6251 25.1859 26.5219 25.5827 26.3314C25.9954 26.1409 26.3208 25.9028 26.5589 25.6171C26.797 25.3314 26.9637 25.0139 27.0589 24.6647C27.1541 24.3155 27.1938 23.9822 27.1779 23.6647C27.1621 23.2203 27.1383 22.8155 27.1065 22.4505C27.0748 22.0854 26.9478 21.76 26.7256 21.4743C26.5192 21.1885 26.1779 20.9425 25.7018 20.7362C25.2256 20.5139 24.5272 20.3235 23.6065 20.1647V19.5933C24.1303 19.6568 24.6621 19.7124 25.2018 19.76C25.7573 19.8076 26.3446 19.8235 26.9637 19.8076C27.5827 19.7758 28.2414 19.7044 28.9398 19.5933C29.6541 19.4822 30.4319 19.3076 31.2732 19.0695L31.3922 19.6171C30.9002 19.7758 30.4954 19.9981 30.1779 20.2838C29.8764 20.5536 29.6303 20.9901 29.4398 21.5933C29.2494 22.1965 29.1065 23.0139 29.0113 24.0457C28.9319 25.0616 28.8764 26.3949 28.8446 28.0457L28.1541 28.0933L27.9637 25.9505C27.7891 26.2203 27.5748 26.4981 27.3208 26.7838C27.0827 27.0695 26.797 27.3235 26.4637 27.5457C26.1303 27.7838 25.7414 27.9743 25.297 28.1171C24.8684 28.26 24.3684 28.3235 23.797 28.3076Z" fill="black"/>
</svg>
